<svg id="Layer_1" data-name="Layer 1" xmlns="http://www.w3.org/2000/svg" viewBox="0 0 303.3 298.95"><defs><style>.cls-1{fill:#e7e7e7;}</style></defs><g id="QtMMdY"><path class="cls-1" d="M195.49,190.67c2.44.6,3.69,2.33,1.87,4.56a53.79,53.79,0,0,1-8.42,8.31c-2.28,1.79-4.15.32-4.61-2.27C183.94,199,192.82,190.55,195.49,190.67Z" transform="translate(-7.39 -15.57)"/><path class="cls-1" d="M172.55,217.27a4.37,4.37,0,0,1-1.77,2.91c-2.39,2.06-4.79,4.12-7.25,6.09-1.57,1.25-3.36,1.8-4.82-.08-1.25-1.61-.6-3.23.76-4.44a89.87,89.87,0,0,1,8-6.72C169.85,213.37,172.64,214.79,172.55,217.27Z" transform="translate(-7.39 -15.57)"/><path class="cls-1" d="M307.43,15.57c2.25.19,3.64,1.19,3.17,3.19a43.61,43.61,0,0,1-4.64,12,2.61,2.61,0,0,1-3.51,1c-1.17-.48-2.18-1.38-1.84-2.62a46.78,46.78,0,0,1,5-12.36C306,16.13,306.94,15.87,307.43,15.57Z" transform="translate(-7.39 -15.57)"/><path class="cls-1" d="M286.68,60a40.38,40.38,0,0,1,5.52-11.1,2.52,2.52,0,0,1,3.54-.65,2.48,2.48,0,0,1,1.34,2.93,42.55,42.55,0,0,1-5.52,11.56,2.39,2.39,0,0,1-3.08.88C287.06,63,286.6,61.84,286.68,60Z" transform="translate(-7.39 -15.57)"/><path class="cls-1" d="M86.61,276.55a3.3,3.3,0,0,1-1.83,3.11c-3.18,1.78-6.37,3.54-9.61,5.21a2.75,2.75,0,0,1-3.91-1,2.52,2.52,0,0,1,.95-3.84c3.28-1.95,6.58-3.86,10-5.55C84.53,273.34,86,274.6,86.61,276.55Z" transform="translate(-7.39 -15.57)"/><path class="cls-1" d="M240.86,137.77c2,.22,3,1.28,2.88,3.29s-6.73,10.58-8.6,11.15a2.9,2.9,0,0,1-3.19-.68,2.27,2.27,0,0,1-.49-2.73,48.53,48.53,0,0,1,8.1-10.49C239.87,138,240.45,137.93,240.86,137.77Z" transform="translate(-7.39 -15.57)"/><path class="cls-1" d="M51.77,290.56c1.94,0,3.16.4,3.66,1.87a2.64,2.64,0,0,1-1.49,3.31q-5.3,2.67-10.75,5a2.45,2.45,0,0,1-3.28-1.42c-.59-1.14-.7-2.42.36-3.16A42.54,42.54,0,0,1,51.77,290.56Z" transform="translate(-7.39 -15.57)"/><path class="cls-1" d="M260.87,109.05c2.56.79,3.59,2.42,2.36,4.56a103,103,0,0,1-6.3,9.42,2.72,2.72,0,0,1-3.93.78,2.28,2.28,0,0,1-1.07-3,41.37,41.37,0,0,1,7.32-11C259.65,109.36,260.4,109.26,260.87,109.05Z" transform="translate(-7.39 -15.57)"/><path class="cls-1" d="M270.23,91.35a39.92,39.92,0,0,1,7-11.94c.84-.94,2.19-.57,3.18.22a2.43,2.43,0,0,1,.82,3.11q-2.88,5.48-6,10.82a2.32,2.32,0,0,1-3.05.92C271,94,270.29,93.13,270.23,91.35Z" transform="translate(-7.39 -15.57)"/><path class="cls-1" d="M19.89,304.79c1.95-.13,3.08.42,3.63,1.85a2.37,2.37,0,0,1-1,3,37.42,37.42,0,0,1-11.94,4.79A2.53,2.53,0,0,1,7.65,313a2.31,2.31,0,0,1,.87-3.07C12.13,307.43,16.33,306.28,19.89,304.79Z" transform="translate(-7.39 -15.57)"/><path class="cls-1" d="M112.71,256.19c1.88-.26,2.85.3,3.43,1.44a2.52,2.52,0,0,1-.64,3.18,35.11,35.11,0,0,1-10.94,6.81,2.35,2.35,0,0,1-3-1.23,2.28,2.28,0,0,1,0-2.8C104.94,260.22,109.05,258.07,112.71,256.19Z" transform="translate(-7.39 -15.57)"/><path class="cls-1" d="M130.29,246a3.83,3.83,0,0,1,1.73-3.09c2.8-2.09,5.62-4.15,8.51-6.11,1.34-.9,2.87-1.13,4,.39s.62,2.82-.56,4a38.92,38.92,0,0,1-9.26,6.73C132.57,249.06,130.86,248.39,130.29,246Z" transform="translate(-7.39 -15.57)"/><path class="cls-1" d="M219.37,164.9c2.32.61,3.23,2.34,2,4.11-2.39,3.53-4.87,7.09-8.35,9.7a2.52,2.52,0,0,1-3.22,0,2.33,2.33,0,0,1-.89-3.06A32.22,32.22,0,0,1,218,165.32,4.06,4.06,0,0,1,219.37,164.9Z" transform="translate(-7.39 -15.57)"/></g></svg>