<svg id="Layer_1" data-name="Layer 1" xmlns="http://www.w3.org/2000/svg" viewBox="0 0 298.95 303.3"><defs><style>.cls-1{fill:#e7e7e7;}</style></defs><g id="QtMMdY"><path class="cls-1" d="M133.42,201.49c-.6,2.44-2.33,3.7-4.56,1.87a53.36,53.36,0,0,1-8.31-8.42c-1.79-2.27-.32-4.15,2.27-4.6C125.1,189.94,133.54,198.82,133.42,201.49Z" transform="translate(-9.56 -13.4)"/><path class="cls-1" d="M106.82,178.56a4.45,4.45,0,0,1-2.91-1.77c-2.06-2.39-4.12-4.79-6.09-7.26-1.25-1.56-1.8-3.36.08-4.82,1.61-1.24,3.23-.59,4.44.76a91.44,91.44,0,0,1,6.72,8C110.72,175.86,109.3,178.65,106.82,178.56Z" transform="translate(-9.56 -13.4)"/><path class="cls-1" d="M308.52,313.44c-.19,2.25-1.19,3.64-3.19,3.17a44.25,44.25,0,0,1-12-4.64,2.62,2.62,0,0,1-1-3.51c.48-1.17,1.38-2.18,2.62-1.84a46.78,46.78,0,0,1,12.36,5C308,312,308.22,313,308.52,313.44Z" transform="translate(-9.56 -13.4)"/><path class="cls-1" d="M264.13,292.69a40.1,40.1,0,0,1,11.1,5.52,2.78,2.78,0,0,1-2.28,4.88,42.85,42.85,0,0,1-11.56-5.52,2.39,2.39,0,0,1-.88-3.08C261.09,293.07,262.25,292.61,264.13,292.69Z" transform="translate(-9.56 -13.4)"/><path class="cls-1" d="M47.54,92.61a3.29,3.29,0,0,1-3.11-1.82c-1.78-3.18-3.54-6.38-5.21-9.62a2.75,2.75,0,0,1,1-3.91,2.53,2.53,0,0,1,3.84.95c1.95,3.28,3.86,6.59,5.55,10C50.75,90.54,49.49,92,47.54,92.61Z" transform="translate(-9.56 -13.4)"/><path class="cls-1" d="M186.32,246.86c-.22,2-1.28,3-3.29,2.89s-10.58-6.74-11.15-8.61a2.88,2.88,0,0,1,.68-3.18,2.27,2.27,0,0,1,2.73-.49,48.22,48.22,0,0,1,10.49,8.1A3.53,3.53,0,0,1,186.32,246.86Z" transform="translate(-9.56 -13.4)"/><path class="cls-1" d="M33.53,57.77c0,1.94-.4,3.17-1.87,3.66a2.62,2.62,0,0,1-3.31-1.49c-1.78-3.53-3.44-7.12-5-10.74-.59-1.39.06-2.58,1.42-3.29,1.14-.59,2.42-.7,3.16.37A42.63,42.63,0,0,1,33.53,57.77Z" transform="translate(-9.56 -13.4)"/><path class="cls-1" d="M215,266.88c-.79,2.56-2.42,3.59-4.56,2.36a105.08,105.08,0,0,1-9.42-6.3,2.72,2.72,0,0,1-.78-3.93,2.26,2.26,0,0,1,3-1.07,41.37,41.37,0,0,1,11,7.32C214.73,265.66,214.83,266.41,215,266.88Z" transform="translate(-9.56 -13.4)"/><path class="cls-1" d="M232.74,276.23a40.17,40.17,0,0,1,11.94,7c.94.84.57,2.19-.22,3.18a2.43,2.43,0,0,1-3.11.82c-3.65-1.92-7.26-3.94-10.82-6a2.32,2.32,0,0,1-.92-3.05C230.08,277,231,276.3,232.74,276.23Z" transform="translate(-9.56 -13.4)"/><path class="cls-1" d="M19.3,25.9c.13,2-.42,3.08-1.85,3.63a2.37,2.37,0,0,1-3-1A37.47,37.47,0,0,1,9.62,16.54a2.52,2.52,0,0,1,1.51-2.88,2.32,2.32,0,0,1,3.07.86C16.66,18.14,17.81,22.33,19.3,25.9Z" transform="translate(-9.56 -13.4)"/><path class="cls-1" d="M67.9,118.72c.26,1.88-.3,2.84-1.44,3.43a2.52,2.52,0,0,1-3.18-.64,35.11,35.11,0,0,1-6.81-10.94,2.35,2.35,0,0,1,1.23-3,2.26,2.26,0,0,1,2.8,0C63.87,110.94,66,115.06,67.9,118.72Z" transform="translate(-9.56 -13.4)"/><path class="cls-1" d="M78.13,136.29A3.87,3.87,0,0,1,81.22,138c2.09,2.8,4.15,5.62,6.11,8.51.9,1.34,1.13,2.87-.39,4s-2.82.63-4-.56a38.66,38.66,0,0,1-6.73-9.25C75,138.58,75.7,136.87,78.13,136.29Z" transform="translate(-9.56 -13.4)"/><path class="cls-1" d="M159.19,225.37c-.61,2.33-2.34,3.23-4.11,2-3.53-2.38-7.09-4.86-9.7-8.35a2.51,2.51,0,0,1,0-3.21,2.33,2.33,0,0,1,3.06-.9A32.37,32.37,0,0,1,158.77,224,4,4,0,0,1,159.19,225.37Z" transform="translate(-9.56 -13.4)"/></g></svg>